<?xml version="1.0" encoding="utf-8"?>
<!-- Generator: Adobe Illustrator 26.0.1, SVG Export Plug-In . SVG Version: 6.00 Build 0)  -->
<svg version="1.1" id="Layer_1" xmlns="http://www.w3.org/2000/svg" xmlns:xlink="http://www.w3.org/1999/xlink" x="0px" y="0px"
	 viewBox="0 0 592 601.8" style="enable-background:new 0 0 592 601.8;" xml:space="preserve">
<style type="text/css">
	.st0{fill:url(#SVGID_1_);stroke:#060606;stroke-width:0.5;stroke-miterlimit:10;}
</style>
<linearGradient id="SVGID_1_" gradientUnits="userSpaceOnUse" x1="200.0273" y1="921.925" x2="330.9564" y2="519.6346" gradientTransform="matrix(1 0 0 1 0.5 -477.78)">
	<stop  offset="5.000000e-02" style="stop-color:#FFFFFF"/>
	<stop  offset="6.000000e-02" style="stop-color:#FCFFFB"/>
	<stop  offset="7.000000e-02" style="stop-color:#F2FFF0"/>
	<stop  offset="7.000000e-02" style="stop-color:#E1FFDE"/>
	<stop  offset="8.000000e-02" style="stop-color:#CAFFC4"/>
	<stop  offset="9.000000e-02" style="stop-color:#ACFFA2"/>
	<stop  offset="9.000000e-02" style="stop-color:#87FF79"/>
	<stop  offset="0.1" style="stop-color:#5CFF4A"/>
	<stop  offset="0.11" style="stop-color:#2DFF15"/>
	<stop  offset="0.16" style="stop-color:#27DE34"/>
	<stop  offset="0.28" style="stop-color:#188883"/>
	<stop  offset="0.2849" style="stop-color:#61EDBF"/>
	<stop  offset="0.4376" style="stop-color:#0087F1"/>
	<stop  offset="0.5196" style="stop-color:#3FD6FF"/>
	<stop  offset="0.63" style="stop-color:#A56291"/>
	<stop  offset="0.7" style="stop-color:#D67F71"/>
	<stop  offset="0.74" style="stop-color:#F4905D"/>
	<stop  offset="0.77" style="stop-color:#FF9755"/>
</linearGradient>
<path class="st0" d="M34.6,13c-7.3,14.6-10.3,31.1-9.4,47.3c1.2,19.3,6.7,34,21.5,56.1C77,161.6,120,198.3,174.6,226l14.5,7.5v5.3
	c0,6.2,2.4,22.7,4.5,30.5c2.7,10,9.4,26.2,14.5,34.9c6.4,10.6,10.9,16.2,29.4,38c17,19.9,24.6,29.6,33.6,43
	c10.6,16.5,18.5,34.3,23.6,53c0.9,3.4,0.9,3.1,3.6-6.2c5.5-19.3,17-41.7,31.5-61.1c3.9-5,14.2-17.8,23-28.3
	c19.1-22.1,25.2-30.2,31.5-41.1c9.4-16.2,16.1-39.6,17.3-59.2l0.6-9l13-6.9c55.5-28,98.5-65.1,129.4-110.9
	c16.4-24.3,20.9-38.6,20.9-61.7c0-16.8-2.1-26.5-8.8-39.9l-4.2-9V23c0,14.6-0.3,19.6-2.4,28.3c-13,62.3-59.1,113.7-136.4,153.3
	c-8.2,4.4-19.1,9.3-24.2,11.5l-9.1,3.7v14c-0.3,56.7-28.5,103.4-77.3,127.4l-7.6,3.7l-8.5-4.4c-38.5-19-64-52-73-94.7
	c-2.7-11.8-4.2-30.8-3.6-39.6l0.6-6.5l-5.8-2.5c-12.1-5-40.3-19.3-53.3-27.1C89.4,152.5,52.4,106.1,40.3,51
	c-1.8-8.7-2.4-13.7-2.4-28.3c0-9.7-0.3-17.8-0.3-17.8S36.7,9.3,34.6,13z M8.8,82.8c-2.1,10-1.8,30.5,0.9,41.1
	c3.6,12.8,9.4,24.9,17.3,35.5c8.8,11.8,38.8,41.4,54.9,54.5c23.9,19,54.6,38.3,80.6,50.8c17.9,8.7,17,8.7,13.3-2.2
	c-1.5-5.3-2.7-10.6-3.6-15.9l-0.6-6.9l-13-7.2c-34.6-19-63-40.2-89.1-66.3c-25.8-25.9-43.3-51.1-55.2-79.1l-4.2-10L8.8,82.8z
	 M579.2,82.8c-5.8,15.6-21.2,41.4-35.5,59.2c-16.4,20.6-47,48.6-72.4,66.3c-13.9,9.7-28.2,18.4-43,26.2c-7.6,4-7.9,4-8.2,8.4
	c-0.6,3.7-4.2,19.6-6.1,26.2c-0.6,1.6-0.3,1.6,2.7,0.6c12.7-4.4,52.4-27.1,72.4-41.1c27.3-19.3,61.5-51.1,75.5-69.8
	c12.1-16.2,18.8-34,19.7-53.3c0.6-9.7-0.9-26.2-2.7-27.1C581.3,78.4,580.4,80.3,579.2,82.8z M0,151.3c0,24,8.2,45.2,25.2,65.7
	c28.2,33.6,69.1,64.2,111.2,82.2c18.8,8.1,62.7,21.2,67,19.9c0.6-0.3-1.5-4-4.2-8.7s-7-11.2-8.8-14.6l-3.3-6.2l-12.1-5.3
	c-39.4-17.4-77.3-39.6-106.4-62.6c-6.1-4.7-18.8-16.5-28.2-25.9C23.3,179,13,166.2,4.2,151.9L0,144.7V151.3L0,151.3z M587.7,151.3
	c-17.9,28.7-50,60.7-84.9,85.3c-23,16.2-57.3,35.2-86.1,47.7l-12.1,5.3l-4.2,7.8c-2.4,4.4-6.1,10.6-8.5,14.3
	c-2.4,3.7-4.2,7.2-3.9,7.5c0.9,0.9,18.2-3.1,33-7.5c54.6-15.9,105.2-48.3,143.1-91.9c13.9-15.9,20.6-28,24.9-44.2
	c1.8-7.5,3.9-29.3,2.7-29.3C591.3,146,589.5,148.5,587.7,151.3z M7.6,214.8c7.9,34,27.3,76,46.7,101.5c17.3,23,43.9,44.5,71.5,58.2
	c10.9,5.3,28.2,12.1,26.1,10c-0.6-0.3-4.5-3.4-9.1-6.9c-10-7.5-23.6-20.9-30.6-30.5c-5.8-7.8-12.7-19.6-11.2-19
	c0.6,0.3,5.2,2.5,10,5c28.5,14.6,65.2,22.7,113.4,25.5l12.4,0.6l-10.3-12.5c-5.8-6.9-10.9-13.1-11.5-13.7s-5.5-1.9-10.3-2.8
	c-45.5-6.9-96.7-27.4-133.4-53.9c-20-14.3-42.4-36.1-56.7-54.8C9.1,215.1,7,213,7.6,214.8z M577.4,222.3
	c-8.8,12.1-36.1,39.6-49.4,49.5c-29.4,22.4-66.4,40.5-104,51.1c-13,3.7-36.7,8.7-41.2,8.7c-3.6,0-5.2,1.2-17.3,15.9L355.2,360
	l12.4-0.6c48.2-2.5,85.2-10.9,113.4-25.5c5.2-2.5,9.4-4.7,10-5c1.5-0.6-5.5,10.9-11.2,19c-7,9.7-20.6,22.7-30.6,30.5
	c-4.5,3.1-8.5,6.2-9.1,6.9c-2.4,1.9,14.9-4.7,26.1-10c29.7-14.3,57.9-38.3,75.5-63.9c12.1-17.8,26.1-45.2,33.6-66.7
	c3.6-10.6,9.7-31.1,9.1-31.5C584.4,212.6,581.3,216.7,577.4,222.3L577.4,222.3z M286.7,236.6c-14.9,3.1-24.9,12.5-27.6,25.5
	c-0.6,3.1-0.9,6.5-0.3,10l0.6,4.4l1.8-4c3.6-6.9,11.5-8.4,17-3.1c2.7,2.5,3,3.7,3,8.1c0,10.6-8.2,21.5-20,25.9
	c-6.1,2.2-17.6,4.4-19.4,3.4c-6.1-3.7,14.2,19,24.9,27.4c9.7,8.1,23,16.5,27.9,17.8c4.8,1.2,20.3-8.1,34.6-20.6
	c5.8-5,21.5-21.8,21.5-23c0-0.3-2.4-0.9-5.5-1.6c-11.5-1.6-24.2-10.6-29.1-20.9c-4.8-10.3-4.2-19.9,2.1-30.2l3.3-5.9l-5.8,0.6
	l-5.8,0.6l3.6-3.1c2.1-1.6,4.5-2.8,7-3.4c6.4-1.2,6.4-1.9,0.9-4.4C310.7,235.7,298.5,234.5,286.7,236.6L286.7,236.6z M131.2,356.6
	c11.5,10.3,23.3,16.5,47.6,24.9c29.1,10,68.5,29.3,94.3,45.8c1.8,1.2,3.6,2.2,5.8,3.4c0.9,0-4.5-13.1-9.4-23.7
	c-4.5-9-16.1-27.7-20.9-33c-1.5-1.9-3.6-2.2-20.9-3.4c-34.9-2.2-66.4-7.2-89.1-14.6c-6.1-1.9-11.2-3.4-11.5-3.4
	S128.5,354.4,131.2,356.6z M452.8,355.9c-21.8,7.2-54.3,12.5-89.4,14.6l-19.1,1.2l-6.1,8.1c-9.7,13.1-17.6,27.4-23.3,42.7
	c-1.5,4.4-2.7,7.8-2.7,7.8s6.4-3.7,13.6-8.1c27.6-16.5,60.6-32.1,87-41.1c19.1-6.5,30.9-12.5,40.9-19.9c7.9-5.9,11.5-9.3,9.7-9
	C463.4,352.8,458.6,354.1,452.8,355.9L452.8,355.9z"/>
<text transform="matrix(1 0 0 1 -26 -54.1102)" style="font-family:'NiagaraSolid-Reg'; font-size:12px;">Lorem ipsum</text>
</svg>
